{"title":"Anais-Link-Has-Sex-Under-Shower[truehdporn].mp4","uid":7544140,"size":396472316,"categoryP":"porn","categoryS":"movies","magnet":"?xt=urn:btih:c0ae7f6b294235cc6afdfeb060ef5684e59e1b06&amp;dn=Anais-Link-Has-Sex-Under-Shower%5Btruehdporn%5D.mp4&amp;tr=udp%3A%2F%2Ftracker.openbittorrent.com%3A80&amp;tr=udp%3A%2F%2Fopen.demonii.com%3A1337&amp;tr=udp%3A%2F%2Ftracker.coppersurfer.tk%3A6969&amp;tr=udp%3A%2F%2Fexodus.desync.com%3A6969","seeders":0,"leechers":0,"uploader":"hdporn","files":1,"time":1345301827,"description":"Format : MPEG-4\nFormat profile : Base Media\nCodec ID : isom\nFile size : 378 MiB\nDuration : 13mn 34s\nOverall bit rate mode : Variable\nOverall bit rate : 3 893 Kbps\nWriting application : Lavf52.64.2\n\nVideo\nID : 1\nFormat : AVC\nFormat/Info : Advanced Video Codec\nFormat profile : &lt;a class=&quot;__cf_email__&quot; href=&quot;/cdn-cgi/l/email-protection&quot; data-cfemail=&quot;460e2f212e060a726876&quot;&gt;[email&amp;#160;protected]&lt;/a&gt;&lt;script data-cfhash='f9e31' type=&quot;text/javascript&quot;&gt;\n/* &lt;![CDATA[ */!function(){try{var t=&quot;currentScript&quot;in document?document.currentScript:function(){for(var t=document.getElementsByTagName(&quot;script&quot;),e=t.length;e--;)if(t[e].getAttribute(&quot;data-cfhash&quot;))return t[e]}();if(t&amp;&amp;t.previousSibling){var e,r,n,i,c=t.previousSibling,a=c.getAttribute(&quot;data-cfemail&quot;);if(a){for(e=&quot;&quot;,r=parseInt(a.substr(0,2),16),n=2;a.length-n;n+=2)i=parseInt(a.substr(n,2),16)^r,e+=String.fromCharCode(i);e=document.createTextNode(e),c.parentNode.replaceChild(e,c)}t.parentNode.removeChild(t);}}catch(u){}}()/* ]]&gt; */&lt;/script&gt;\nFormat settings, CABAC : Yes\nFormat settings, ReFrames : 4 frames\nCodec ID : avc1\nCodec ID/Info : Advanced Video Coding\nDuration : 13mn 34s\nBit rate mode : Variable\nBit rate : 3 868 Kbps\nWidth : 1 920 pixels\nHeight : 1 080 pixels\nDisplay aspect ratio : 16:9\nFrame rate mode : Constant\nFrame rate : 25.000 fps\nColor space : YUV\nChroma subsampling : 4:2:0\nBit depth : 8 bits\nScan type : Progressive\nBits/(Pixel*Frame) : 0.075\nStream size : 373 MiB (99%)\n\nAudio\nID : 2\nFormat : AAC\nFormat/Info : Advanced Audio Codec\nFormat profile : LC\nCodec ID : 40\nDuration : 13mn 34s\nBit rate mode : Variable\nBit rate : 50.3 Kbps\nChannel(s) : 2 channels\nChannel positions : Front: L R\nSampling rate : 44.1 KHz\nCompression mode : Lossy\nDelay relative to video : -1ms\nStream size : 4.89 MiB (1%)\n\n\nSCREENSHOT.......\n &lt;a href=&quot;\nhttp://www.pixsor.com/share-D38B_502F9132.html&quot; rel=&quot;nofollow&quot; target=&quot;_NEW&quot;&gt;\nhttp://www.pixsor.com/share-D38B_502F9132.html&lt;/a&gt;","torrent":{"xt":"urn:btih:c0ae7f6b294235cc6afdfeb060ef5684e59e1b06","amp;dn":"Anais-Link-Has-Sex-Under-Shower%5Btruehdporn%5D.mp4","amp;tr":["udp%3A%2F%2Ftracker.openbittorrent.com%3A80","udp%3A%2F%2Fopen.demonii.com%3A1337","udp%3A%2F%2Ftracker.coppersurfer.tk%3A6969","udp%3A%2F%2Fexodus.desync.com%3A6969"],"infoHash":"c0ae7f6b294235cc6afdfeb060ef5684e59e1b06","infoHashBuffer":{"type":"Buffer","data":[192,174,127,107,41,66,53,204,106,253,254,176,96,239,86,132,229,158,27,6]},"announce":[],"urlList":[]}}